<?xml version="1.0" encoding="UTF-8"?>
<svg width="77px" height="74px" viewBox="0 0 77 74" version="1.1" xmlns="http://www.w3.org/2000/svg" xmlns:xlink="http://www.w3.org/1999/xlink">
    <!-- Generator: Sketch 50 (54983) - http://www.bohemiancoding.com/sketch -->
    <title>LinkedIn</title>
    <desc>Created with Sketch.</desc>
    <defs></defs>
    <g id="Welcome" stroke="none" stroke-width="1" fill="none" fill-rule="evenodd">
        <g id="Desktop-HD" transform="translate(-591.000000, -5425.000000)" fill="#11A7DE" fill-rule="nonzero">
            <g id="linkedin-logo" transform="translate(591.000000, 5425.000000)">
                <path d="M76.9997129,45.5327147 L76.9997129,74 L60.4961812,74 L60.4961812,47.4392819 C60.4961812,40.7670129 58.1091233,36.2134503 52.135392,36.2134503 C47.5752056,36.2134503 44.8614355,39.2822178 43.6675485,42.2507339 C43.2321709,43.3119668 43.1201042,44.789064 43.1201042,46.2745752 L43.1201042,74 L26.6110229,74 C26.6110229,74 26.8333662,29.0148614 26.6110229,24.3540656 L43.118493,24.3540656 L43.118493,31.3911781 C43.0850162,31.4438101 43.0415142,31.5005595 43.0100066,31.5515803 L43.118493,31.5515803 L43.118493,31.3911781 C45.3116718,28.0132423 49.2284589,23.1877477 57.9954454,23.1877477 C68.8571495,23.1875687 76.9997129,30.2833999 76.9997129,45.5327147 Z M9.34182099,0.42226185 C3.69408574,0.42226185 0,4.12673077 0,8.99823361 C0,13.7635774 3.58721057,17.5804711 9.12270003,17.5804711 L9.23297659,17.5804711 C14.9900933,17.5804711 18.5705011,13.7642934 18.5705011,8.99823361 C18.4620147,4.12673077 14.9900933,0.42226185 9.34182099,0.42226185 Z M0.980494674,74 L17.4833103,74 L17.4833103,24.3540656 L0.980494674,24.3540656 L0.980494674,74 Z" id="LinkedIn"></path>
            </g>
        </g>
    </g>
</svg>