<?xml version="1.0" encoding="UTF-8"?>
<svg width="102px" height="82px" viewBox="0 0 102 82" version="1.1" xmlns="http://www.w3.org/2000/svg" xmlns:xlink="http://www.w3.org/1999/xlink">
    <!-- Generator: Sketch 50 (54983) - http://www.bohemiancoding.com/sketch -->
    <title>Shape</title>
    <desc>Created with Sketch.</desc>
    <defs></defs>
    <g id="Welcome" stroke="none" stroke-width="1" fill="none" fill-rule="evenodd">
        <g id="Desktop-HD" transform="translate(-284.000000, -5426.000000)" fill="#11A7DE" fill-rule="nonzero">
            <g id="media" transform="translate(263.000000, 5399.000000)">
                <path d="M123,36.8366458 C119.878306,38.0602816 115.183839,38.6080375 111.869456,38.3132497 C113.768383,36.9744048 118.591585,33.0570893 119.709677,27 C114.762883,30.2223707 107.835315,31.5644956 104.875875,31.5163209 C101.249734,28.6975922 96.6983952,27 91.7419355,27 C79.9300887,27 70.3548387,36.542063 70.3548387,48.3165593 C70.3548387,49.4247809 70.4656815,50.5075827 70.6295806,51.5709097 C62.1049718,51.4171609 43.1469556,48.1211957 27.5806452,30.2766953 C19.0817419,44.7643461 29.5132984,53.7779231 34.1612903,57.7561231 C29.9118387,60.0719906 24.2903226,54.9693741 24.2903226,54.9693741 C24.2903226,54.9693741 24.0172258,72.1636194 41.7588508,75.6615081 C38.7545806,77.9037812 33.4752581,77.7018577 30.8709677,76.0618701 C34.4617379,89.989055 49.6151129,90.786499 50.6129032,90.786499 C41.4296129,97.551448 32.9274194,99.4284139 21,99.1561759 C31.3513548,106.946117 43.4200524,108.871258 53.9032258,108.996102 C62.1386976,109.092246 69.6994476,107.401009 75.6935927,104.915402 C100.644109,94.5662605 113.129032,72.7915297 113.129032,48.3165593 C113.129032,47.6439593 113.088931,46.9840693 113.027855,46.3274593 C117.645206,44.5978873 120.970899,40.7092716 123,36.8366458 Z" id="Shape"></path>
            </g>
        </g>
    </g>
</svg>