<?xml version="1.0" encoding="UTF-8"?>
<svg width="100px" height="98px" viewBox="0 0 100 98" version="1.1" xmlns="http://www.w3.org/2000/svg" xmlns:xlink="http://www.w3.org/1999/xlink">
    <!-- Generator: Sketch 50 (54983) - http://www.bohemiancoding.com/sketch -->
    <title>Group 3</title>
    <desc>Created with Sketch.</desc>
    <defs>
        <polygon id="path-1" points="0 0 102 0 102 100 0 100"></polygon>
    </defs>
    <g id="Welcome" stroke="none" stroke-width="1" fill="none" fill-rule="evenodd">
        <g id="Desktop-HD" transform="translate(-429.000000, -5415.000000)">
            <g id="Group-3" transform="translate(428.000000, 5414.000000)">
                <mask id="mask-2" fill="white">
                    <use xlink:href="#path-1"></use>
                </mask>
                <g id="Clip-2"></g>
                <path d="M1,51.2406696 C1,73.4374813 15.3265218,92.2698288 35.1930516,98.9130649 C37.6918924,99.3781331 38.6092932,97.8231915 38.6092932,96.4962082 C38.6092932,95.2990113 38.5629264,91.3405245 38.541399,87.1424318 C24.6313506,90.181598 21.6961648,81.2146851 21.6961648,81.2146851 C19.4217063,75.4084051 16.1445651,73.8634471 16.1445651,73.8634471 C11.6080678,70.7452443 16.4865205,70.8093056 16.4865205,70.8093056 C21.5073856,71.1637225 24.1511227,75.9874524 24.1511227,75.9874524 C28.610618,83.6673163 35.847983,81.4468031 38.7011989,80.163082 C39.1499636,76.9167567 40.4457508,74.6995714 41.8756707,73.444969 C30.7699874,72.1753912 19.0954825,67.8666473 19.0954825,48.6158218 C19.0954825,43.1315121 21.0486852,38.6497195 24.2471683,35.1305099 C23.7280254,33.8650919 22.0165927,28.7551662 24.7315361,21.8348859 C24.7315361,21.8348859 28.9310459,20.4854395 38.4850964,26.9847459 C42.4734716,25.8724094 46.7508114,25.3141612 51,25.2941941 C55.2491886,25.3141612 59.5298404,25.8724094 63.5256674,26.9847459 C73.0689541,20.4854395 77.2618401,21.8348859 77.2618401,21.8348859 C79.9834073,28.7551662 78.2719746,33.8650919 77.7528317,35.1305099 C80.9587666,38.6497195 82.8978936,43.1315121 82.8978936,48.6158218 C82.8978936,67.9132373 71.2010333,72.1612478 60.0671988,73.4050347 C61.8606014,74.9641361 63.458601,78.0216055 63.458601,82.7088932 C63.458601,89.431166 63.4014705,94.8414309 63.4014705,96.4962082 C63.4014705,97.834007 64.3006558,99.3997642 66.8350997,98.9072412 C86.6908657,92.2565173 101,73.4308256 101,51.2406696 C101,23.4921591 78.6139299,1 51,1 C23.389382,1 1,23.4921591 1,51.2406696 Z" id="Fill-1" fill="#11A7DE" mask="url(#mask-2)"></path>
                <path d="M19.9734069,73.7753982 C19.8933609,74.0034827 19.609288,74.0716808 19.3504927,73.915583 C19.0862808,73.7655473 18.9388277,73.4556251 19.0242903,73.2275405 C19.1025308,72.9941516 19.3866037,72.9289846 19.6502138,73.0850824 C19.9138238,73.2343603 20.0642862,73.5473136 19.9734069,73.7753982" id="Fill-4" fill="#11A7DE" mask="url(#mask-2)"></path>
                <path d="M21.8963271,75.8449803 C21.7337676,76.139173 21.4154217,76.0025442 21.200369,75.5375655 C20.9768495,75.0736886 20.9356452,74.4522478 21.1004626,74.1547496 C21.2681021,73.8605568 21.576288,73.9982875 21.7992429,74.4621644 C22.0227624,74.9315505 22.0662245,75.5463802 21.8963271,75.8449803" id="Fill-6" fill="#11A7DE" mask="url(#mask-2)"></path>
                <path d="M24.7021118,78.9042616 C24.3148841,79.1421263 23.680668,78.9199349 23.289254,78.4239224 C22.9020263,77.928832 22.9020263,77.3350922 23.2986731,77.0972275 C23.690087,76.8593628 24.3148841,77.0741786 24.7115309,77.5646593 C25.097712,78.0680473 25.097712,78.6617871 24.7021118,78.9042616" id="Fill-8" fill="#11A7DE" mask="url(#mask-2)"></path>
                <path d="M26.8330306,80.8013218 C26.5402283,81.1312026 25.916586,81.0426319 25.4601329,80.5925478 C24.9930646,80.1524054 24.8630285,79.5278912 25.1558308,79.1980103 C25.4530561,78.8672256 26.0802368,78.9603153 26.5402283,79.4067842 C27.0037582,79.8460229 27.145294,80.475056 26.8330306,80.8013218" id="Fill-10" fill="#11A7DE" mask="url(#mask-2)"></path>
                <path d="M29.9793998,83.4029301 C29.8649936,83.9059868 29.3329265,84.1335854 28.7969414,83.9198129 C28.2617399,83.6996591 27.9114689,83.1115189 28.0196062,82.6031445 C28.130878,82.0958337 28.6652959,81.8586632 29.2051991,82.0873253 C29.739617,82.3064155 30.0906715,82.8913651 29.9793998,83.4029301" id="Fill-12" fill="#11A7DE" mask="url(#mask-2)"></path>
                <path d="M33.9997193,83.489133 C34.0128145,83.765512 33.566036,83.9947179 33.0129549,83.9997127 C32.4567926,84.0091473 32.0061625,83.7849363 32,83.5129971 C32,83.2338432 32.4375349,83.0074122 32.9929269,83.0001974 C33.5460079,82.9924278 33.9997193,83.2149739 33.9997193,83.489133" id="Fill-14" fill="#11A7DE" mask="url(#mask-2)"></path>
                <path d="M37.9925438,82.7515757 C38.0590981,83.2794947 37.6729282,83.8226526 37.1211464,83.9674222 C36.5786512,84.1078377 36.0763982,83.7802014 36.0075222,83.2566364 C35.940194,82.714567 36.332555,82.1714091 36.8750501,82.0309935 C37.4276058,81.8960204 37.92212,82.2138603 37.9925438,82.7515757" id="Fill-16" fill="#11A7DE" mask="url(#mask-2)"></path>
            </g>
        </g>
    </g>
</svg>