<?xml version="1.0" encoding="UTF-8"?>
<svg width="70px" height="65px" viewBox="0 0 70 65" version="1.1" xmlns="http://www.w3.org/2000/svg" xmlns:xlink="http://www.w3.org/1999/xlink">
    <!-- Generator: Sketch 50 (54983) - http://www.bohemiancoding.com/sketch -->
    <title>logo</title>
    <desc>Created with Sketch.</desc>
    <defs></defs>
    <g id="Page-1" stroke="none" stroke-width="1" fill="none" fill-rule="evenodd">
        <g id="logo" fill="#FEFBF7">
            <polygon id="Rectangle-5" fill-rule="nonzero" transform="translate(57.500000, 32.500000) scale(-1, 1) translate(-57.500000, -32.500000) " points="57.5 3.09276414e-15 68.007339 0 70 1.85032803 68.007339 3.70065607 59.6079102 3.70065607 49.2158203 13.3504538 49.2158203 51.6694685 59.6079102 61.3192662 68.0180664 61.3192662 70 63.1596331 68.0180664 65 57.5 65 45 53.3928571 45 11.6071429"></polygon>
            <polygon id="Rectangle-5" fill-rule="nonzero" points="12.5 3.09276414e-15 23.007339 0 25 1.85032803 23.007339 3.70065607 14.6079102 3.70065607 4.21582031 13.3504538 4.21582031 51.6694685 14.6079102 61.3192662 23.0180664 61.3192662 25 63.1596331 23.0180664 65 12.5 65 0 53.3928571 0 11.6071429"></polygon>
            <g id="PH" transform="translate(11.000000, 21.000000)" stroke="#FEFBF7" stroke-width="0.5">
                <path d="M4.522,5.116 C4.522,3.80132676 4.14800374,3.144 3.4,3.144 L3.264,3.144 C3.21866644,3.144 3.1393339,3.15533322 3.026,3.178 C2.98066644,3.178 2.93533356,3.18366661 2.89,3.195 C2.84466644,3.20633339 2.79933356,3.212 2.754,3.212 L2.822,3.212 C2.41399796,3.28000034 2.08533458,3.314 1.836,3.314 C0.77066134,3.314 0.238,2.8040051 0.238,1.784 C0.238,0.71866134 0.90665998,0.186 2.244,0.186 L2.55,0.186 C2.64066712,0.186 2.73133288,0.19733322 2.822,0.22 L2.788,0.22 L4.386,0.424 C4.93000272,0.49200034 5.56466304,0.526 6.29,0.526 C6.78866916,0.526 7.4346627,0.49200034 8.228,0.424 L8.194,0.424 C9.07800442,0.33333288 9.86566321,0.27100017 10.557,0.237 C11.2483368,0.20299983 11.8319976,0.186 12.308,0.186 C13.8040075,0.186 15.0393285,0.2993322 16.014,0.526 C16.7166702,0.73000102 17.3796636,1.03033135 18.003,1.427 C18.6263365,1.82366865 19.1589978,2.29399728 19.601,2.838 C20.0430022,3.38200272 20.394332,3.98832999 20.655,4.657 C20.915668,5.32567001 21.046,6.03399626 21.046,6.782 C21.046,8.98067766 20.3036741,10.6636608 18.819,11.831 C17.3343259,12.9983392 15.1640143,13.582 12.308,13.582 L9.078,13.582 C8.82866542,13.582 8.6473339,13.5706668 8.534,13.548 C8.44333288,13.5706668 8.39233339,13.6103331 8.381,13.667 C8.36966661,13.723667 8.364,13.8653322 8.364,14.092 L8.364,14.738 C8.364,17.5033472 8.43199932,19.1353308 8.568,19.634 C8.65866712,19.9966685 8.96466406,20.178 9.486,20.178 C9.5993339,20.178 9.70133288,20.1723334 9.792,20.161 C9.88266712,20.1496666 9.9846661,20.1326668 10.098,20.11 C10.2113339,20.11 10.3303327,20.1043334 10.455,20.093 C10.5796673,20.0816666 10.6759997,20.076 10.744,20.076 C10.8120003,20.076 10.8686664,20.0703334 10.914,20.059 C10.9593336,20.0476666 11.0046664,20.042 11.05,20.042 C12.0926719,20.042 12.614,20.5406617 12.614,21.538 C12.614,22.6260054 11.9226736,23.17 10.54,23.17 C10.4946664,23.1473332 10.4493336,23.136 10.404,23.136 L10.251,23.136 C10.1943331,23.136 10.1433336,23.1246668 10.098,23.102 L8.466,22.864 C8.0126644,22.7959997 7.35533764,22.762 6.494,22.762 C5.76866304,22.762 5.16800238,22.7959997 4.692,22.864 L2.788,23.136 C2.71999966,23.136 2.65200034,23.1473332 2.584,23.17 L2.312,23.17 C0.9519932,23.17 0.272,22.6373387 0.272,21.572 C0.272,21.1186644 0.42499847,20.7503348 0.731,20.467 C1.03700153,20.1836653 1.40533118,20.042 1.836,20.042 C2.15333492,20.042 2.4819983,20.0759997 2.822,20.144 C2.91266712,20.144 3.00333288,20.1496666 3.094,20.161 C3.18466712,20.1723334 3.2866661,20.178 3.4,20.178 C4.14800374,20.178 4.522,19.5206732 4.522,18.206 L4.522,5.116 Z M8.5,3.688 C8.40933288,3.8013339 8.364,4.3113288 8.364,5.218 L8.364,10.046 C8.364,10.3406681 8.63599728,10.5219997 9.18,10.59 C9.31600068,10.59 9.42933288,10.5956666 9.52,10.607 C9.61066712,10.6183334 9.7126661,10.624 9.826,10.624 C9.9393339,10.624 10.0809992,10.6183334 10.251,10.607 C10.4210009,10.5956666 10.6533319,10.59 10.948,10.59 C11.6506702,10.5673332 12.3193302,10.5333336 12.954,10.488 C13.5886698,10.4426664 14.1666641,10.3633339 14.688,10.25 C16.3426749,9.81933118 17.17,8.6973424 17.17,6.884 C17.17,4.41332098 15.5833492,3.178 12.41,3.178 C10.0299881,3.178 8.7266678,3.3479983 8.5,3.688 Z M30.022,9.536 L39.338,9.536 L39.338,5.184 C39.338,3.84665998 38.975337,3.178 38.25,3.178 C38.2273332,3.178 38.1650005,3.18366661 38.063,3.195 C37.9609995,3.20633339 37.8533339,3.22333322 37.74,3.246 L37.774,3.246 C37.6153325,3.29133356 37.4396676,3.32533322 37.247,3.348 C37.0543324,3.37066678 36.8673342,3.382 36.686,3.382 C35.6206613,3.382 35.088,2.8720051 35.088,1.852 C35.088,0.76399456 35.7339935,0.22 37.026,0.22 C37.3886685,0.22 37.9779959,0.28799932 38.794,0.424 C39.202002,0.49200034 39.5816649,0.53733322 39.933,0.56 C40.2843351,0.58266678 40.6186651,0.594 40.936,0.594 C41.4120024,0.594 41.9276639,0.58266678 42.483,0.56 C43.0383361,0.53733322 43.5766641,0.48066712 44.098,0.39 C44.3926681,0.34466644 44.6589988,0.31066678 44.897,0.288 C45.1350012,0.26533322 45.3106661,0.254 45.424,0.254 C46.76134,0.254 47.43,0.78666134 47.43,1.852 C47.43,2.84933832 46.8973387,3.348 45.832,3.348 C45.7186661,3.348 45.5883341,3.34233339 45.441,3.331 C45.2936659,3.31966661 45.1520007,3.30266678 45.016,3.28 C44.8799993,3.25733322 44.710001,3.24033339 44.506,3.229 C44.301999,3.21766661 44.2,3.20066678 44.2,3.178 C43.5199966,3.20066678 43.18,3.86932676 43.18,5.184 L43.18,18.206 C43.18,19.5206732 43.5313298,20.178 44.234,20.178 C44.2793336,20.178 44.3756659,20.1723334 44.523,20.161 C44.6703341,20.1496666 44.8233325,20.144 44.982,20.144 L45.832,20.042 C46.8973387,20.042 47.43,20.5406617 47.43,21.538 C47.43,22.6260054 46.76134,23.17 45.424,23.17 C45.1293319,23.17 44.6646698,23.1020007 44.03,22.966 C43.3273298,22.8073325 42.5453376,22.728 41.684,22.728 C40.4826607,22.728 39.4966705,22.7959993 38.726,22.932 C38.2726644,23.0226671 37.8986681,23.0849998 37.604,23.119 C37.3093319,23.1530002 37.1280003,23.17 37.06,23.17 C35.7453268,23.17 35.088,22.6260054 35.088,21.538 C35.088,20.5179949 35.6206613,20.008 36.686,20.008 C36.6406664,20.008 36.7313322,20.0193332 36.958,20.042 C37.1846678,20.0646668 37.3773325,20.0873332 37.536,20.11 C37.6720007,20.1326668 37.8079993,20.144 37.944,20.144 L38.25,20.144 C38.8620031,20.144 39.2133329,19.679338 39.304,18.75 C39.3266668,18.6366661 39.338,17.6846756 39.338,15.894 L39.338,12.664 L30.022,12.664 L30.022,15.928 C30.022,17.7186756 30.0333332,18.6706661 30.056,18.784 C30.1920007,19.713338 30.5546637,20.178 31.144,20.178 C31.1666668,20.178 31.2516659,20.1723334 31.399,20.161 C31.5463341,20.1496666 31.6993325,20.144 31.858,20.144 L32.742,20.042 C33.7846719,20.042 34.306,20.5406617 34.306,21.538 C34.306,22.6260054 33.63734,23.17 32.3,23.17 C32.0506654,23.17 31.5520037,23.1020007 30.804,22.966 C30.2826641,22.8753329 29.7953356,22.8073336 29.342,22.762 C28.8886644,22.7166664 28.4920017,22.694 28.152,22.694 C27.6986644,22.694 27.239669,22.7166664 26.775,22.762 C26.310331,22.8073336 25.8173359,22.8753329 25.296,22.966 L24.514,23.102 L24.31,23.153 C24.2646664,23.1643334 24.1626675,23.17 24.004,23.17 C22.6439932,23.17 21.964,22.6260054 21.964,21.538 C21.964,21.1526647 22.1226651,20.8013349 22.44,20.484 C22.7573349,20.1666651 23.1313312,20.008 23.562,20.008 C23.6980007,20.008 23.8396659,20.0136666 23.987,20.025 C24.1343341,20.0363334 24.2759993,20.0533332 24.412,20.076 C24.7066681,20.1440003 24.9446658,20.178 25.126,20.178 C25.8740037,20.178 26.248,19.5206732 26.248,18.206 L26.248,5.116 C26.248,3.77865998 25.8740037,3.11 25.126,3.11 C25.0579997,3.11 24.9900003,3.11566661 24.922,3.127 C24.8539997,3.13833339 24.7633339,3.15533322 24.65,3.178 C24.4686658,3.22333356 24.276001,3.25733322 24.072,3.28 C23.867999,3.30266678 23.6980007,3.314 23.562,3.314 C23.1313312,3.314 22.7573349,3.15533492 22.44,2.838 C22.1226651,2.52066508 21.964,2.16933526 21.964,1.784 C21.964,0.71866134 22.6439932,0.186 24.004,0.186 C24.1173339,0.186 24.275999,0.19733322 24.48,0.22 C24.684001,0.24266678 24.9106654,0.27666644 25.16,0.322 C25.2053336,0.322 25.2336666,0.32766661 25.245,0.339 C25.2563334,0.35033339 25.2846664,0.356 25.33,0.356 C26.1006705,0.51466746 27.0753274,0.594 28.254,0.594 C28.6846688,0.594 29.3419956,0.52600068 30.226,0.39 C31.1326712,0.25399932 31.8239976,0.186 32.3,0.186 C33.63734,0.186 34.306,0.72999456 34.306,1.818 C34.306,2.2713356 34.1530015,2.63966525 33.847,2.923 C33.5409985,3.20633475 33.1726688,3.348 32.742,3.348 C32.5606658,3.348 32.3736676,3.33666678 32.181,3.314 C31.9883324,3.29133322 31.8013342,3.25733356 31.62,3.212 C31.5519997,3.212 31.4896669,3.20633339 31.433,3.195 C31.376333,3.18366661 31.3253336,3.178 31.28,3.178 C31.2119997,3.178 31.1666668,3.16666678 31.144,3.144 C30.7586647,3.144 30.4866675,3.3139983 30.328,3.654 C30.1693325,3.9940017 30.0786668,4.49266338 30.056,5.15 L30.022,9.536 Z"></path>
            </g>
        </g>
    </g>
</svg>