<?xml version="1.0" encoding="UTF-8"?>
<svg width="28px" height="44px" viewBox="0 0 28 44" version="1.1" xmlns="http://www.w3.org/2000/svg" xmlns:xlink="http://www.w3.org/1999/xlink">
    <!-- Generator: Sketch 50 (54983) - http://www.bohemiancoding.com/sketch -->
    <title>scroll-down</title>
    <desc>Created with Sketch.</desc>
    <defs></defs>
    <g id="Page-1" stroke="none" stroke-width="1" fill="none" fill-rule="evenodd">
        <g id="scroll-down" fill="#F0DF22">
            <path d="M14,4 C19.5,4 24,8.5 24,14 L24,30 C24,35.5 19.5,40 14,40 C8.5,40 4,35.5 4,30 L4,14 C4,8.5 8.5,4 14,4 Z M14,0 C6.3,0 0,6.3 0,14 L0,30 C0,37.7 6.3,44 14,44 C21.7,44 28,37.7 28,30 L28,14 C28,6.3 21.7,0 14,0 Z" id="Shape" fill-rule="nonzero"></path>
            <circle id="Oval" cx="14" cy="11" r="2"></circle>
            <path d="M17.1930769,30.9607692 C16.9376923,30.7053846 16.5546154,30.7053846 16.2992308,30.9607692 L14.8307692,32.4292308 L14.8307692,18.6384615 C14.8307692,18.2553846 14.5753846,18 14.1923077,18 C13.8092308,18 13.5538462,18.2553846 13.5538462,18.6384615 L13.5538462,32.4292308 L12.0853846,30.9607692 C11.83,30.7053846 11.4469231,30.7053846 11.1915385,30.9607692 C10.9361538,31.2161538 10.9361538,31.5992308 11.1915385,31.8546154 L13.7453846,34.4084615 C13.8092308,34.4723077 13.8730769,34.5361538 13.9369231,34.5361538 C14.0007692,34.6 14.1284615,34.6 14.1923077,34.6 C14.2561538,34.6 14.3838462,34.6 14.4476923,34.5361538 C14.5115385,34.4723077 14.5753846,34.4723077 14.6392308,34.4084615 L17.1930769,31.8546154 C17.4484615,31.5992308 17.4484615,31.2161538 17.1930769,30.9607692 Z" id="Shape" stroke="#F0DF22" fill-rule="nonzero" transform="translate(14.192308, 26.300000) scale(1, -1) translate(-14.192308, -26.300000) "></path>
        </g>
    </g>
</svg>