<?xml version="1.0" encoding="UTF-8"?>
<svg width="70px" height="65px" viewBox="0 0 70 65" version="1.1" xmlns="http://www.w3.org/2000/svg" xmlns:xlink="http://www.w3.org/1999/xlink">
    <!-- Generator: Sketch 50 (54983) - http://www.bohemiancoding.com/sketch -->
    <title>Logo</title>
    <desc>Created with Sketch.</desc>
    <defs></defs>
    <g id="Welcome" stroke="none" stroke-width="1" fill="none" fill-rule="evenodd">
        <g id="Desktop-HD" transform="translate(-40.000000, -40.000000)" fill="#FEFBF7">
            <g id="Hero" transform="translate(40.000000, 40.000000)">
                <g id="Logo">
                    <path d="M12.5,0 L23.149672,2.44249065e-15 C24.1715799,4.39496024e-16 25,0.828420078 25,1.85032803 L25,1.85032803 C25,2.87223599 24.1715799,3.70065607 23.149672,3.70065607 L14.6079102,3.70065607 C8.86851742,3.70065607 4.21582031,8.35335317 4.21582031,14.0927459 L4.21582031,50.9271763 C4.21582031,56.6665691 8.86851742,61.3192662 14.6079102,61.3192662 L23.1596331,61.3192662 C24.1760397,61.3192662 25,62.1432265 25,63.1596331 L25,63.1596331 C25,64.1760397 24.1760397,65 23.1596331,65 L12.5,65 C5.59644063,65 8.45442189e-16,59.4035594 0,52.5 L0,12.5 C-8.45442189e-16,5.59644063 5.59644063,1.26816328e-15 12.5,0 Z" id="Rectangle-5"></path>
                    <path d="M57.5,3.09276414e-15 L68.007339,0 C69.1078553,1.62755174e-15 70,0.828420078 70,1.85032803 C70,2.87223599 69.1078553,3.70065607 68.007339,3.70065607 L59.6079102,3.70065607 C53.8685174,3.70065607 49.2158203,8.02101766 49.2158203,13.3504538 L49.2158203,51.6694685 C49.2158203,56.9989046 53.8685174,61.3192662 59.6079102,61.3192662 L68.0180664,61.3192662 C69.1126581,61.3192662 70,62.1432265 70,63.1596331 C70,64.1760397 69.1126581,65 68.0180664,65 L57.5,65 C50.5964406,65 45,59.8033051 45,53.3928571 L45,11.6071429 C45,5.19669487 50.5964406,7.56929275e-15 57.5,3.09276414e-15 Z" id="Rectangle-5" transform="translate(57.500000, 32.500000) scale(-1, 1) translate(-57.500000, -32.500000) "></path>
                    <text id="PH" font-family="AmericanTypewriter-Semibold, American Typewriter" font-size="34" font-weight="500">
                        <tspan x="11" y="44">PH</tspan>
                    </text>
                </g>
            </g>
        </g>
    </g>
</svg>